# xmcd CD database file
#
# Track frame offsets:
#	187
#	21787
#	39412
#	61087
#
# Disc length: 1046 seconds
#
# Revision: 0
# Processed by: cddbd v1.5.1PL2 Copyright (c) Steve Scherf et al.
# Submitted via: CDex 1.51
#
DISCID=26041404
DTITLE=小林旭 - 熱き心に
DYEAR=1992
DGENRE=JPop
TTITLE0=熱き心に
TTITLE1=昔の名前で出ています
TTITLE2=熱き心に (Instrumental)
TTITLE3=昔の名前で出ています (Instrumental)
EXTD=YEAR: 1992
EXTT0=
EXTT1=
EXTT2=
EXTT3=
PLAYORDER=
